<?xml version="1.0" encoding="UTF-8"?>
<svg id="Layer_2" data-name="Layer 2" xmlns="http://www.w3.org/2000/svg" viewBox="0 0 152.76 108.03">
  <defs>
    <style>
      .cls-1 {
        fill: #fff;
        stroke-width: 0px;
      }
    </style>
  </defs>
  <g id="artboard_18" data-name="artboard 18">
    <path class="cls-1" d="m64.68,5.95c-4.33,3.01-14.82,6.65-16.59,28.2-.46,22.08,15.54,29.97,16.59,30.64s3.94,2.52,3.94,2.52L0,66.18s.87,13.42,2.15,20.63c1.29,7.21,5.02,20.81,5.02,20.81l8.17.4,1.42-14.11,128.18,2.94s1.69-2.5,3.59-9.96c1.9-7.46,3.05-18.21,3.05-18.21,0,0,.54-5.65,1.03-10.87.66-11.51-1.22-18.25-2.21-22.17-2.09-8.17-7.17-15.27-7.17-15.27,0,0-3.35-6.33-13.86-12.3C118.87,2.13,110.13.54,96.79,0c-3.57.13-26.73,2.22-32.11,5.95Zm75.99,41.28c1.24,4.8.83,10.7-.17,13.53-1,2.83-3.94,7.68-3.94,7.68l-62.96-1.04,9.34.15s-7.14-2.23-9.43-3.75c-2.28-1.52-5.43-4.32-5.43-4.32,0,0-5.53-5.77-4.61-13.83.18-1.56,1.67-7.3,5.39-9.69,5.93-3.82,18-5.59,22.86-6,4.86-.41,17.45-.47,25.71,1.2,8.26,1.67,16.51,4.88,19.13,7.77,2.69,2.96,2.85,3.42,4.11,8.31Z"/>
  </g>
</svg>