<?xml version="1.0" encoding="UTF-8"?>
<svg id="Layer_1" data-name="Layer 1" xmlns="http://www.w3.org/2000/svg" viewBox="0 0 568.75 670.6">
  <defs>
    <style>
      .cls-1 {
        fill: #231f20;
        stroke-width: 0px;
      }
    </style>
  </defs>
  <path class="cls-1" d="m385.78,468.7l91.93-165.85h61.3l-115.38,203.71,145.12,152.33h-80.22l-95.54-102.75c-25.84,34.86-54.24,62.64-85.18,83.37-30.96,20.73-68.66,31.1-113.12,31.1-27.04,0-52.43-4.37-76.17-13.07-23.75-8.71-44.32-21.18-61.74-37.41-17.44-16.22-31.26-35.74-41.47-58.59-10.22-22.83-15.32-48.36-15.32-76.61,0-24.63,4.2-46.26,12.62-64.9,8.41-18.62,19.38-35.15,32.9-49.57,13.52-14.42,28.98-27.49,46.41-39.21,17.42-11.72,35.45-23.28,54.08-34.7-9.01-10.82-18.18-22.08-27.49-33.8-9.32-11.72-17.58-23.89-24.79-36.5-7.21-12.62-13.22-25.69-18.03-39.21-4.81-13.52-7.21-27.49-7.21-41.91,0-22.83,4.35-43.27,13.07-61.29,8.7-18.03,20.42-33.2,35.15-45.52,14.72-12.31,31.85-21.77,51.38-28.39C187.63,3.31,207.91,0,228.95,0c18.62,0,36.64,3.31,54.08,9.92,17.42,6.62,32.9,15.77,46.42,27.49,13.52,11.72,24.18,25.84,32,42.36,7.8,16.53,11.72,35.01,11.72,55.43,0,22.84-4.06,42.67-12.16,59.49-8.12,16.83-18.93,31.86-32.45,45.07-13.52,13.23-28.7,24.94-45.52,35.15-16.83,10.23-34.25,20.14-52.28,29.74l155.03,164.04Zm-205.51-134.3c-14.42,8.42-28.7,17.43-42.81,27.04-14.12,9.62-27.04,20.28-38.76,32-11.72,11.72-21.18,24.94-28.39,39.66-7.22,14.73-10.82,31.41-10.82,50.03,0,20.43,3.74,38.76,11.27,54.98,7.51,16.22,17.72,30.19,30.64,41.91,12.92,11.72,28.24,20.73,45.97,27.04,17.72,6.31,36.5,9.46,56.33,9.46,16.81,0,32.59-2.7,47.32-8.11,14.72-5.41,28.39-12.62,41.01-21.63,12.62-9.01,24.34-19.38,35.16-31.1,10.81-11.72,20.73-24.18,29.74-37.41l-176.67-183.87ZM224.44,54.08c-27.04,0-49.88,8.27-68.5,24.79-18.63,16.53-27.95,38.31-27.95,65.35,0,10.82,2.25,21.94,6.76,33.35,4.51,11.42,10.21,22.53,17.13,33.35,6.9,10.82,14.42,21.04,22.53,30.64,8.11,9.62,15.47,18.34,22.08,26.14,12.61-6.61,25.83-13.82,39.65-21.63,13.82-7.8,26.43-16.81,37.86-27.04,11.41-10.21,20.87-21.77,28.4-34.7,7.5-12.92,11.27-27.79,11.27-44.62,0-25.24-8.42-45.81-25.24-61.74-16.83-15.91-38.17-23.89-63.99-23.89Z"/>
</svg>