<?xml version="1.0" encoding="UTF-8"?>
<svg id="Layer_1" data-name="Layer 1" xmlns="http://www.w3.org/2000/svg" viewBox="0 0 527.22 669.67">
  <defs>
    <style>
      .cls-1 {
        stroke-width: 0px;
      }
    </style>
  </defs>
  <path class="cls-1" d="m181.34,201.32c20.88-1.38,31.67-3.97,46.03-8.78,16.21-5.43,32.16-13.19,48.82-15.32,24.69-3.16,49.92-5.43,74.87-.22,11.36,2.37,23.5,3.1,33.88,7.73,19.72,8.79,39.74,17.39,57.11,30.78,26.97,20.8,46.27,46.97,61.01,77.87,24.6,51.55,28.39,105.08,20.39,160.24-3.38,23.31-8.46,46.4-13.42,69.44-4.06,18.86-15.81,34.45-23.36,51.81-6.26,14.38-15.23,26.38-25.61,37.69-3.76,4.1-7.41,8.32-11.37,12.21-17.77,17.48-39.34,27.59-63.64,31.95-37.43,6.71-74.9,13.59-113.14,12.89-33.87-.62-67.74-1.97-101.6-3.04-9.73-.31-19.5-.33-29.17-1.3-20.16-2.01-34.56-14.7-49.06-27.2-12.73-10.97-20.17-23.85-22.42-41.21-4.79-36.97-6.98-73.94-6.76-111.17.31-51.07.24-102.15-.14-153.22-.12-16.69-.83-92.74-.71-114.09.22-40.39-.1-80.79-.28-121.19-.07-16.31-6.19-28.97-20.08-38.82-12.41-8.8-23.28-19.81-34.56-30.14C3.3,23.85-2.69,17.95,1.31,11.64,4.31,6.91,11.38,3.45,17.24,2.17,25.75.31,34.8.6,43.62.53,80.28.23,116.94.14,153.6,0c1.85,0,3.71.23,5.56.37,17.03,1.31,18.27,3.09,18.46,20.39.59,55.27,1.44,110.53,2.29,165.79.07,4.53.86,9.05,1.43,14.76Zm243.65,179.51c-2-19.65.06-53.53-18.24-83.71-10.18-16.79-21.18-32.18-37.06-44.5-18.53-14.37-39.68-20.62-61.85-22.27-19.32-1.44-38.73,1.39-57.32,9.03-19.25,7.91-39.18,14.21-58.92,20.89-6.38,2.16-10.63,5.88-11.49,12.46-1.31,10.09-2.84,20.25-2.94,30.39-.4,41.32-.62,82.65-.22,123.96.21,22.26.85,44.59,3.05,66.72,2.16,21.75,13.63,37.49,36.34,41.67,11.29,2.08,23.01,2.97,34.49,2.69,19.42-.49,38.7-2.43,58.27-1.1,18.72,1.27,37.75-.1,55.39-7.77,18.86-8.19,34.46-20.62,42.24-40.18,12.09-30.38,20.67-61.66,18.25-108.28Z"/>
</svg>