<?xml version="1.0" encoding="UTF-8"?>
<svg id="Layer_1" data-name="Layer 1" xmlns="http://www.w3.org/2000/svg" viewBox="0 0 386.7 674.99">
  <defs>
    <style>
      .cls-1 {
        stroke-width: 0px;
      }
    </style>
  </defs>
  <path class="cls-1" d="m382.12,625.67c-8.12-26.38-14.35-53.47-19.52-80.61-7.21-37.87-13.61-75.95-18.67-114.16-15.88-119.94-30.36-240.06-47.41-359.83-1.54-10.8-16-24.23-27.37-28.28-29-10.34-61.06-12.69-89.33-24.42C135.97.18,93.34-8.86,48.58,12.05,22.96,24.03,4.07,45.43,16.39,72.25c13.57,29.55,37.78,9.46,58.39,2.05,11.49-4.13,29.27-8.95,35.97-3.44,7.43,6.11,6.62,23.57,7.22,36.19.43,9.11-2.48,18.43-4.25,27.59-29.54,152.95-58.73,305.97-89.1,458.76-5.26,26.49-15.54,51.98-24.63,81.59h88.84c6.03-60.13,11.04-115.27,17.5-170.24,1.3-11.05,7.96-30.69,12.34-30.74,42.1-.5,84.25,2.2,126.34,4.65,2.34.14,6.13,6.11,6.21,9.44,1.19,48.05,31.12,94.33,6.92,144.18-12.21,25.16-2.84,37.11,26.62,34.87,21.06-1.61,42.55.91,63.74,2.84,36.43,3.32,44.72-8.27,33.62-44.31Zm-156.03-215.25c-29.76,3.52-60.59,3.56-90.11-1.18-6.19-.99-13.73-27.66-11.55-41.02,14.9-91.32,32.23-182.25,48.78-273.31,4.33-.51,8.65-1.01,12.98-1.52,4.33,8.93,11.14,17.48,12.6,26.85,12.85,82.68,25.47,165.41,36.24,248.37,1.81,13.98-4.14,41.23-8.93,41.8Z"/>
</svg>