<?xml version="1.0" encoding="UTF-8"?>
<svg id="Layer_1" data-name="Layer 1" xmlns="http://www.w3.org/2000/svg" viewBox="0 0 397.74 675.84">
  <defs>
    <style>
      .cls-1 {
        stroke-width: 0px;
      }
    </style>
  </defs>
  <path class="cls-1" fill="white" d="m397.57,462.32c-2.91-58.47-19.57-83.18-35.7-110.17-22.19-37.12-54.74-58.4-76.85-71.66-33.76-20.26-63.33-35.8-109.77-32.76-34.6,2.26-86.24,34.59-86.24,34.59V0H0v674.7h81.58s71.03,2.58,97.13,0c26.1-2.58,66.55-5.99,85.56-13.12,39.24-14.34,59.43-24.12,80.2-49.04,21.64-25.97,56.01-91.75,53.1-150.22Zm-147.26,144.99c-25.87,20.28-58.18,34.47-93.78,28.67-35.6,0-67.51-33.5-67.51-33.5v-212.75l4.13-51.81s10.02-53.58,81.74-67.34c16.41-3.15,33.5-1.38,48.38,6.21,32.33,16.47,46.67,52.42,47.96,65.67,1.67,17.13,6.3,94.73,6.3,129.22s-1.35,115.35-27.22,135.63Z"/>
</svg>