<?xml version="1.0" encoding="UTF-8"?>
<svg id="Layer_2" data-name="Layer 2" xmlns="http://www.w3.org/2000/svg" viewBox="0 0 159.92 110.26">
  <defs>
    <style>
      .cls-1 {
        fill: #fff;
        stroke-width: 0px;
      }
    </style>
  </defs>
  <g id="artboard_18" data-name="artboard 18">
    <path class="cls-1" d="m159.92,0H0v24.2c1.14,1.2,2.65,2.27,4.63,3.17-1.45,3.38-3.12,6.57-4.63,9.71v44.08c4.55,11.34,12.1,21.7,21.56,29.1h113.21c12.08-9.77,19.34-24.27,19.14-40.71-.13-10.79-3.26-21.55-5.33-34.19h11.34V0Zm-45.11,67.27c-2.45,1.5-4.85,3.47-7.54,4.13-21.38,5.26-42.95,7.25-63.04-3.66-5.43-2.95-10.71-10.12-11.87-16.16-2.32-12.12,2.23-15.98,14.58-16.05,9.36-.05,18.73-.01,28.09-.01v.06c10.08,0,20.2.48,30.25-.14,8.9-.55,12.13,4.56,14.14,11.69,2.13,7.54,3.74,15.02-4.61,20.14Z"/>
  </g>
</svg>