<?xml version="1.0" encoding="UTF-8"?>
<svg id="Layer_1" data-name="Layer 1" xmlns="http://www.w3.org/2000/svg" viewBox="0 0 752.17 676.77">
  <defs>
    <style>
      .cls-1 {
        fill: #231f20;
        stroke-width: 0px;
      }
    </style>
  </defs>
  <path class="cls-1" d="m666.78,255.72c-25.44,16.05-49.51,35.74-72.22,59.05-22.71,23.32-44.97,49.06-66.77,77.22-21.8,28.16-44.82,56.18-69.04,84.03,8.47,10.9,18.17,23.48,29.07,37.7,10.9,14.24,24.53,29.83,40.88,46.78,15.74,16.35,31.63,29.68,47.69,39.97,16.04,10.31,35.88,15.44,59.5,15.44,12.11,0,23.46-2.41,34.07-7.27,10.59-4.84,20.44-10.9,29.52-18.17,9.08-7.27,17.26-15.13,24.53-23.62,7.27-8.47,13.01-16.35,17.25-23.62l8.18,3.63c-4.24,12.12-11.97,25.89-23.16,41.33-11.21,15.44-24.69,29.84-40.43,43.15-15.76,13.33-33.47,24.23-53.14,32.7-19.69,8.47-40.13,12.72-61.32,12.72-19.99,0-38.47-3.49-55.42-10.45-16.96-6.96-32.86-16.49-47.69-28.61-14.84-12.11-28.61-25.89-41.33-41.33-12.72-15.44-24.23-31.34-34.52-47.69-7.88,11.51-18.78,24.53-32.71,39.06-13.94,14.54-30.13,28.16-48.6,40.88-18.48,12.72-38.92,23.17-61.32,31.34-22.41,8.18-46.03,12.26-70.85,12.26-27.86,0-53.01-4.09-75.4-12.26-22.42-8.17-41.2-19.67-56.32-34.52-15.14-14.83-26.8-32.25-34.98-52.23-8.17-19.98-12.26-40.88-12.26-62.68,0-25.44,5.3-48.9,15.9-70.4,10.59-21.49,24.53-40.88,41.78-58.14,17.26-17.26,36.48-32.7,57.69-46.33,21.19-13.63,42.09-25.58,62.68-35.88-13.32-13.93-25.74-26.49-37.24-37.7-11.51-11.2-21.5-22.85-29.98-34.97-8.49-12.11-15.3-25.44-20.44-39.97-5.15-14.53-7.73-31.79-7.73-51.78s4.68-38.29,14.09-54.96c9.38-16.65,21.49-30.89,36.34-42.7,14.83-11.81,31.48-21.04,49.96-27.71C201.51,3.34,220.13,0,238.91,0c16.35,0,32.39,2.43,48.14,7.27,15.75,4.85,29.83,11.97,42.24,21.35,12.4,9.4,22.55,21.35,30.43,35.88,7.87,14.54,11.82,31.5,11.82,50.87s-4.25,36.95-12.72,52.69c-8.49,15.76-18.33,29.52-29.52,41.33-11.21,11.81-22.57,21.66-34.07,29.52-11.51,7.88-20.3,13.63-26.35,17.26,18.77,14.54,36.03,29.84,51.78,45.88,15.75,16.05,31.18,32.56,46.33,49.51,16.94,19.39,32.54,39.06,46.78,59.05,14.22,19.98,26.49,38.47,36.79,55.41,13.93-17.56,27.1-35.12,39.52-52.69,12.4-17.56,23.3-34.21,32.7-49.96,9.39-15.74,16.81-30.12,22.26-43.15,5.45-13.02,8.18-23.46,8.18-31.34,0-13.32-3.5-23.62-10.45-30.89-6.97-7.27-16.21-12.72-27.7-16.35-11.51-3.63-24.23-5.9-38.16-6.81-13.94-.91-27.86-1.66-41.78-2.27v-10.9l317.03-7.27v10.9c-31.49,4.24-59.95,14.39-85.39,30.43Zm-303.41,246.18c-7.27-10.59-14.69-20.89-22.26-30.89-7.58-9.99-15.76-20.28-24.53-30.89-8.78-10.59-18.62-22.56-29.52-35.88-6.06-7.27-13.48-15.44-22.25-24.53-8.79-9.08-17.88-18.01-27.25-26.8-9.4-8.77-18.49-17.1-27.25-24.98-8.79-7.86-16.22-14.53-22.26-19.98-10.31,8.49-20.89,18.48-31.79,29.98-10.9,11.51-20.89,24.23-29.98,38.15-9.08,13.94-16.51,29.23-22.26,45.88-5.77,16.66-8.63,34.07-8.63,52.23s3.03,35.43,9.08,51.78c6.05,16.35,14.83,30.75,26.35,43.15,11.5,12.42,25.12,22.11,40.88,29.07,15.74,6.97,33,10.45,51.77,10.45s35.43-1.51,49.96-4.54c14.54-3.02,28.01-7.41,40.43-13.17,12.41-5.75,24.37-13.02,35.88-21.8,11.5-8.77,23.62-18.92,36.34-30.43-7.88-13.93-15.44-26.19-22.71-36.79Zm-64.04-409.7c-3.95-13.63-9.54-25.73-16.81-36.34-7.27-10.59-16.05-19.22-26.34-25.89-10.31-6.66-21.5-9.99-33.61-9.99-10.9,0-20.3,2.43-28.16,7.27-7.88,4.85-14.24,10.9-19.08,18.17-4.85,7.27-8.49,15.15-10.9,23.62-2.42,8.49-3.63,16.35-3.63,23.62,0,19.39,1.82,34.52,5.45,45.42,3.64,10.9,10,22.71,19.08,35.43,10.29,14.54,21.34,27.11,33.15,37.7,11.81,10.6,25.9,23.17,42.24,37.7,15.74-16.35,27.09-33.3,34.07-50.87,6.96-17.56,10.44-39.06,10.44-64.5,0-13.92-1.97-27.71-5.9-41.33Z"/>
</svg>