<?xml version="1.0" encoding="UTF-8"?>
<svg id="Layer_1" data-name="Layer 1" xmlns="http://www.w3.org/2000/svg" viewBox="0 0 549.88 674.78">
  <defs>
    <style>
      .cls-1 {
        stroke-width: 0px;
      }
    </style>
  </defs>
  <path class="cls-1" d="m547.44,648.36c-4.03-7.83-71.87-75.15-71.87-75.15,0,0-225.34-567.55-226.67-570.53-1.33-2.98-13.16-4.14-14.9,0-2.06,6.7-163.42,532.07-163.42,532.07l-.17-.05-18.12,59.01S3.65,644.01,1.65,649.7c-2.01,5.69-2.38,8.75,0,12.04,2.38,3.28,8.61,5.59,13.38,6.69,4.77,1.1,98.76.99,104.35,0,5.59-.99,11.67-6.61,12.71-11.37s.52-16.33-4.01-25.99c-4.5-9.6-22.26-37-22.45-37.3l29.34-95.53h172.37l25.99,65.43c1.65,4.16,2.1,8.7,1.28,13.11-1.78,9.67-5.22,26.91-8.19,33.36-13.2,28.64-23.85,22.81-28.45,39.56-1.2,4.27-3.21,7.37,0,12.04,3.21,4.67,15.38,10.35,23.41,12.04,8.03,1.69,209.88.92,213.37,0,3.49-.91,11.87-7.54,13.38-10.29,1.51-2.75,3.35-7.3-.67-15.12Zm-396.83-201.11l59.49-193.7,76.96,193.7h-136.45Z"/>
</svg>