<?xml version="1.0" encoding="UTF-8"?>
<svg id="Layer_2" data-name="Layer 2" xmlns="http://www.w3.org/2000/svg" viewBox="0 0 113.24 76.8">
  <defs>
    <style>
      .cls-1 {
        fill: #fff;
        stroke-width: 0px;
      }
    </style>
  </defs>
  <g id="artboard_18" data-name="artboard 18">
    <path class="cls-1" d="m106.71,9.03c-2.1-2.51-4.69-4.51-7.76-6-3.07-1.49-6.56-2.23-10.45-2.23-2.46,0-4.84.41-7.15,1.23-2.31.82-4.54,1.84-6.69,3.07-2.15,1.23-4.23,2.64-6.23,4.23-2,1.59-3.92,3.15-5.76,4.69-1.95-3.18-3.92-6.25-5.92-9.22-1.15-1.72-2.4-3.31-3.7-4.8h-16.6c1.02.29,2,.66,2.94,1.12,2.51,1.23,4.77,2.84,6.76,4.84,2,2,3.82,4.2,5.46,6.61,1.64,2.41,3.18,4.84,4.61,7.3l-31.36,30.13c-2.26-1.54-4.38-3.23-6.38-5.07-2-1.85-3.77-3.84-5.3-6-1.54-2.15-2.77-4.48-3.69-6.99-.92-2.51-1.38-5.2-1.38-8.07,0-3.38.54-6.59,1.61-9.61,1.08-3.02,2.61-5.64,4.61-7.84,2-2.2,4.38-3.95,7.15-5.23,1.06-.49,2.18-.89,3.35-1.19H6.42C4.16,2.71,2.38,5.82,1.09,9.34c-.43,1.17-.79,2.36-1.09,3.58v19.11c.88,3.53,2.26,6.74,4.17,9.59,3.54,5.28,8.27,10.12,14.22,14.53L.86,72.45v4.35h9.79l16.19-15.42,27.23,15.42h7.51v-6.2l-28.29-15.68,27.98-26.44c1.64,3.07,3.33,6.05,5.07,8.92,1.74,2.87,3.74,5.46,6,7.76,2.25,2.31,4.82,4.15,7.69,5.53,2.87,1.38,6.25,2.07,10.15,2.07,3.48,0,6.63-.67,9.45-2,2.82-1.33,5.23-3.15,7.22-5.46,2-2.31,3.56-4.95,4.69-7.92,1.13-2.97,1.69-6.05,1.69-9.22,0-3.59-.56-7.05-1.69-10.38-1.13-3.33-2.74-6.25-4.84-8.76Zm-6.76,29.29c-2.72,2.87-6.23,4.3-10.53,4.3-2.87,0-5.41-.64-7.61-1.92-2.21-1.28-4.18-2.9-5.92-4.84-1.74-1.95-3.28-4.1-4.61-6.46-1.33-2.36-2.56-4.61-3.69-6.76,1.33-1.13,2.82-2.38,4.46-3.77,1.64-1.38,3.38-2.67,5.23-3.84,1.85-1.18,3.74-2.15,5.69-2.92,1.95-.77,3.84-1.15,5.69-1.15,4.61,0,8.33,1.59,11.15,4.77,2.82,3.17,4.23,7.07,4.23,11.68s-1.36,8.04-4.07,10.92Z"/>
  </g>
</svg>