<?xml version="1.0" encoding="UTF-8"?>
<svg id="Layer_1" data-name="Layer 1" xmlns="http://www.w3.org/2000/svg" viewBox="0 0 559.94 669.67">
  <defs>
    <style>
      .cls-1 {
        stroke-width: 0px;
      }
    </style>
  </defs>
  <path class="cls-1" d="m6.02,215.34C4.05,152.4,2,89.46.14,26.52-.56,2.91.64,1.68,23.74,1.2,47.75.71,71.77.9,95.76.02c10.63-.39,14.89,3.83,15.12,14.06,1.26,56.15,2.69,112.29,4.07,168.44.04,1.81-.23,3.72.25,5.42,2.03,7.1,4.3,14.14,6.48,21.2,6.23-2.85,12.76-5.2,18.65-8.64,29.07-17.01,59.6-29.27,93.21-34.7,42.79-6.91,85.06-5.84,126.36,6.43,54.62,16.22,102.57,43.9,140.91,87.21,22.27,25.15,40.77,53.35,48.93,85.02,11.99,46.49,15.12,93.82,0,141.84-17.58,55.85-50.88,99.26-97.81,131.25-25.35,17.28-55.12,29.41-84.45,39.21-48.15,16.1-98.34,16.72-147.37,4.19-60.46-15.45-112.89-45.18-153.45-94.34-39.74-48.16-58.78-103-58.56-165.1.22-62.06.05-124.13.05-186.19-.71,0-1.42,0-2.13.01Zm442.42,205.45c1.23-49.78-16.26-90.19-56.77-120.21-24.55-18.19-51.28-29.59-81.65-34.19-54.31-8.22-103.63,3.77-144.46,39.57-61.1,53.58-62.45,149.36-5.55,207.67,50.94,52.2,137.63,66.59,203.25,32.22,50.25-26.32,83.58-65.23,85.19-125.06Z"/>
</svg>