<?xml version="1.0" encoding="UTF-8"?>
<svg id="Layer_1" data-name="Layer 1" xmlns="http://www.w3.org/2000/svg" viewBox="0 0 484.82 675.84">
  <defs>
    <style>
      .cls-1 {
        stroke-width: 0px;
      }
    </style>
  </defs>
  <path class="cls-1" d="m181.43,647.05c-12.58,27.54-35.27,25.34-60.44,20.72-32.26-5.91-65.04-9.03-95.73-13.1,32.79-171.74,10.11-341.8,16.61-510.81.16-4.17-1.58-8.42-2.76-14.24-12.96-1.89-25.58-3.74-39.11-5.71V0h205.85v206.86c38.66-6.35,71.55-15.9,104.56-16.31,69.56-.85,127.86,41.99,151.99,107.18,31.18,84.23,29.16,169.05-1.9,252.42-30.58,82.08-132.16,139.29-216.92,122.88-20.94-4.05-40.25-16.56-62.16-25.98Zm25.08-215.31h-.18c0,28.64-.13,57.27.03,85.91.22,37.77,12.04,51.7,49.09,44.59,18.47-3.54,40.41-19.69,49.42-36.3,33.36-61.46,27.28-127.41,11.19-192.79-2.02-8.23-8.04-15.56-12.64-23.05-15.68-25.53-38.54-20.61-61.6-14.11-21.79,6.14-37.43,16.02-35.74,43.25,1.9,30.72.44,61.65.44,92.49Z"/>
</svg>