<?xml version="1.0" encoding="UTF-8"?>
<svg id="Layer_1" data-name="Layer 1" xmlns="http://www.w3.org/2000/svg" viewBox="0 0 753.57 672.36">
  <defs>
    <style>
      .cls-1 {
        stroke-width: 0px;
      }
    </style>
  </defs>
  <path class="cls-1" d="m51.11,634.12c21.05-15.4,33.47-37.28,45.27-59.83,14.68-28.05,30.42-55.54,45.38-83.45,14.42-26.9,28.29-54.09,42.66-81,11.78-22.07,24.08-43.86,35.93-65.9,13.45-25.01,26.54-50.22,40-75.23,14.68-27.27,29.79-54.32,44.39-81.64,18.94-35.43,37.39-71.13,56.43-106.5,5.01-9.31,30.19-66.16,32.64-71.09,1.9-3.81,5.42-9,8.71-9.39,4.4-.52,11.59,1.71,13.49,5.07,4.87,8.64,7.29,18.62,11.04,27.93,7.65,19.01,15.66,37.88,23.26,56.91,9.69,24.26,18.87,48.72,28.72,72.92,12.87,31.63,26.18,63.09,39.31,94.62,7.25,17.43,14.8,34.74,21.7,52.31,12.75,32.48,24.84,65.23,37.75,97.64,7.72,19.38,16.68,38.27,24.73,57.53,11.06,26.46,21.72,53.08,32.67,79.59,8.67,21.01,16.82,42.27,26.5,62.8,7.93,16.82,22.4,27.57,38.28,37.04,13.88,8.27,29.14,7.7,43.97,9.61,6.83.88,8.32,3.88,9.41,9.31,1.4,6.95-3.85,7.05-7.96,7.99-3.36.77-6.92,1.06-10.38.98-35.89-.79-71.77-2-107.66-2.47-31.37-.41-62.75-.07-94.13.09-5.69.03-11.49,1.66-17.03.95-3.09-.4-7.85-3.93-8.06-6.37-.24-2.81,3.09-7.43,5.99-8.67,5.11-2.19,11.11-2.2,16.66-3.48,30.21-7.01,40.3-25.99,29.21-55.31-8.83-23.35-18.41-46.42-26.88-69.9-8.46-23.45-15.99-47.24-23.86-70.91-2.58-7.74-7.66-11.53-15.87-10.14-22.92,1.86-195.15,1.21-243.76.24-14.08-.28-23.54,1.77-29.99,16.9-11.95,28.04-26.92,54.8-40.44,82.18-9.53,19.28-18.41,38.89-28.18,58.04-15.23,29.85,6.48,51.57,34.07,51.46,7.82-.03,12.36,2.22,9.92,10.02-.87,2.78-6.48,5.73-9.97,5.8-30.81.57-61.63.6-92.45.61-52.88,1.11-94.83,2.7-92.48-4.36-.07-13.26,26.68-1.53,51.01-32.9Zm427.63-221.69c10.88-.02,14.13-5.79,9.14-15.21-3.09-5.84-19.82-49.25-25.67-64.82-5.05-13.45-20.49-62.92-24.3-73.82-13.7-39.23-27.92-78.28-42.06-117.36-.76-2.09-3.13-5.33-3.87-5.34-2.47-.04-9.18,11.37-10.75,14.42-16.45,31.73-33.15,63.33-49.59,95.07-13.2,25.49-26.16,51.1-39.15,76.7-13.89,27.36-27.83,54.7-41.44,82.2-3.43,6.92-.93,9.64,6.75,9.61,36.81-.12,184.1-1.4,220.94-1.46Z"/>
</svg>