<?xml version="1.0" encoding="UTF-8"?>
<svg id="Layer_2" data-name="Layer 2" xmlns="http://www.w3.org/2000/svg" viewBox="0 0 91.81 61.08">
  <defs>
    <style>
      .cls-1 {
        fill: #fff;
        stroke-width: 0px;
      }
    </style>
  </defs>
  <g id="artboard_18" data-name="artboard 18">
    <path class="cls-1" d="m89.95,8.17c-.92-2.76-2-5.55-3.32-8.17h-19.88c2.96,2.14,5.32,5.15,7.22,8.78,4.95,9.46,2.88,21.95-4.64,29.29-8.4,8.2-22.2,8-29.92-.8-5.16-5.88-6.89-12.99-5.7-20.82.66-4.38,2.31-8.23,4.93-11.76,1.42-1.91,3-3.47,4.74-4.69h-19.4c-1.58,2.91-2.86,6-3.83,9.26-1.77,5.95-1.92,12.04-.93,18.21.78,4.84,2.55,9.24,5,13.43.5.85.83,1.79,1.25,2.69-1.02.31-2.03.64-3.05.93-.24.07-.52.03-.78.04-7.21.18-14.41.36-21.62.52v15.99c8.78-.26,17.56-.55,26.34-.82,0-.1,0-.2,0-.31,8.94,0,17.89-.02,26.83,0,8.95.03,16.85-2.71,23.79-8.44,7.08-5.84,11.37-13.4,13.59-22.11,1.81-7.07,1.72-14.3-.6-21.24Z"/>
  </g>
</svg>