<?xml version="1.0" encoding="UTF-8"?>
<svg id="Layer_1" data-name="Layer 1" xmlns="http://www.w3.org/2000/svg" viewBox="0 0 453.68 671.08">
  <defs>
    <style>
      .cls-1 {
        stroke-width: 0px;
      }
    </style>
  </defs>
  <path class="cls-1" d="m448.97,638.42c-5.21-13.27-13.56-25.53-17.26-39.13-10.62-39.05-18.38-78.89-29.47-117.79-15.45-54.23-33.78-107.64-49.28-161.86-21.9-76.62-42.24-153.69-63.44-230.51-5.42-19.64-10.79-39.36-17.6-58.54-7.18-20.22-18.7-34.42-44.3-29.66-13.95,2.6-28.75,1.49-43.11.83-15.84-.73-23.07,6.64-26.25,21.54-16.13,75.69-33.64,151.1-48.96,226.95-15.48,76.62-28.44,153.74-43.55,230.43-6.63,33.66-17.03,66.6-23.44,100.29-3.09,16.22-5.78,28.42-24.74,33-7.4,1.79-17.44,12.61-17.56,19.48-.15,8.47,7.17,18.96,14.27,25.1,5.93,5.13,16.08,6.57,24.57,7.31,19.78,1.73,39.69,2.15,59.55,2.89,8.29.31,16.6.05,32.86.05-10.2-20.86-14.4-39.29-25.79-50.28-14.13-13.63-15.31-26.47-11.38-42.9,4.28-17.87,8.65-35.73,12.16-53.75,2.88-14.79,10.74-22.67,26.1-22.55,40.01.31,80.04,1.05,120.04.63,20.24-.21,30.91,7.82,34.28,28.25,2.72,16.46,8.67,32.38,12.88,48.62q9.71,37.48-28.39,40.44c-4.14,33.91,7.98,52.5,33.46,52.82,42.2.54,84.41,1.42,126.6.77,7.47-.12,17.38-5.29,21.41-11.3,2.92-4.34-1.02-14.35-3.68-21.13Zm-205.6-188.9c-27.94-.32-55.91-.2-83.82-1.31-28.5-1.14-37.91-10.76-34.52-38.94,3.43-28.43,9.61-56.58,15.72-84.61,11.54-52.91,23.87-105.65,36.01-158.42.65-2.83,2.66-5.35,6.88-13.51,6.43,10.84,12.76,17.63,14.78,25.52,16.57,64.88,31.4,130.22,48.8,194.87,6.7,24.91,18.66,48.41,29.75,76.43-9.25,0-21.43.12-33.61-.02Z"/>
</svg>