<?xml version="1.0" encoding="UTF-8"?>
<svg id="Layer_1" data-name="Layer 1" xmlns="http://www.w3.org/2000/svg" viewBox="0 0 477.94 675.84">
  <defs>
    <style>
      .cls-1 {
        stroke-width: 0px;
      }
    </style>
  </defs>
  <path class="cls-1" fill="white" d="m451.6,286.17c-13.32-19.17-29.43-65.56-124.78-73.4-97.7-2.04-132.61,68.76-135.58,73.4-2.97,4.64-11.15,17.44-11.15,17.44L185.12,0s-59.37,3.84-91.27,9.52C61.95,15.21,1.78,31.75,1.78,31.75l-1.78,36.15,62.41,6.29-13.01,567.1s11.06,7.49,44.05,15.87c32.99,8.39,80.56,13.49,80.56,13.49,0,0,25.01,2.38,48.08,4.57,50.91,2.94,80.75-5.39,98.06-9.77,36.13-9.24,67.54-31.71,67.54-31.71,0,0,28.01-14.81,54.4-61.31,26.4-46.51,33.44-85.2,35.84-144.21-.6-15.79-9.83-118.28-26.34-142.05Zm-182.65,336.19c-21.22,5.46-47.33,3.68-59.86-.74-12.52-4.42-33.98-17.43-33.98-17.43l4.62-278.57-.68,41.31s9.85-31.61,16.58-41.71c6.73-10.1,19.13-24.04,19.13-24.04,0,0,25.54-24.47,61.21-20.4,6.91.79,32.28,7.39,42.88,23.85,16.91,26.25,24.74,79.65,26.56,101.15,1.82,21.5,2.09,77.2-5.29,113.75-7.39,36.55-21.61,73.06-34.39,84.65-13.1,11.88-15.13,12.6-36.77,18.17Z"/>
</svg>