<?xml version="1.0" encoding="UTF-8"?>
<svg id="Layer_1" data-name="Layer 1" xmlns="http://www.w3.org/2000/svg" viewBox="0 0 351.99 675.84">
  <defs>
    <style>
      .cls-1 {
        fill: #231f20;
        stroke-width: 0px;
      }
    </style>
  </defs>
  <path class="cls-1" d="m345.76,327.7c-5.4-26.61-31.61-70.17-40.09-80.49-8.48-10.31-32.38-51.91-99.7-51.91-59.01,0-99.03,50.08-108.02,62.45L102.88,0H17.34L0,665.79h90.16l1.09-57.03c2.28,5.8,7.32,15.65,18.34,29.37,11.44,14.25,54.03,37.66,88.16,37.71,32.35.05,51.21-4.47,81.58-28.76,32.06-25.65,55.65-88.42,66.44-127.73,10.79-39.32,5.4-165.03,0-191.65Zm-99.94,182.4c-5.06,25.57-13.05,69.32-75.85,69.32-47.61,0-69.32-39.4-77.05-58.48l3.21-168.22c6.35-16.27,28.72-62.18,78.99-62.18,56.25,4.71,62.61,24.93,70.7,49.34,8.09,24.4,5.06,144.65,0,170.22Z"/>
</svg>