<?xml version="1.0" encoding="UTF-8"?>
<svg id="Layer_1" data-name="Layer 1" xmlns="http://www.w3.org/2000/svg" viewBox="0 0 696.36 669.4">
  <defs>
    <style>
      .cls-1 {
        stroke-width: 0px;
      }
    </style>
  </defs>
  <path class="cls-1" fill="white" d="m528.08,660.1c-17.99-13.02-35.02-26.64-51.13-40.91-60.75,33.47-128.62,50.2-203.61,50.2-85.54,0-152.47-15.81-200.82-47.42C24.17,590.37,0,546.67,0,490.89c0-44,13.78-81.81,41.37-113.42,27.57-31.61,71.43-60.11,131.55-85.54-28.51-32.22-47.88-58.41-58.11-78.56-10.22-20.13-15.34-41.37-15.34-63.68,0-45.86,17.04-82.28,51.13-109.24C184.69,13.48,230.25,0,287.28,0s98.55,11.01,132.02,33.01c33.47,22.01,50.21,51.29,50.21,87.86,0,33.47-11.62,62.45-34.86,86.93-23.24,24.49-64.94,51.29-125.05,80.42,62.6,76.24,127.05,147.22,193.38,212.91,14.88-29.13,22.32-60.74,22.32-94.83,0-14.25-1.09-28.66-3.25-43.23-2.18-14.56-4.81-26.18-7.9-34.86h114.35c1.86,20.45,2.79,35.02,2.79,43.7,0,34.72-6.21,67.56-18.59,98.55-12.41,31-30.07,58.89-53,83.67,50.2,45.87,95.76,81.21,136.67,105.99h-168.28Zm-95.76-80.89c-58.27-55.16-130.16-133.25-215.7-234.29-17.36,17.36-31,38.44-40.91,63.22-9.92,24.8-14.88,49.9-14.88,75.31,0,42.77,11.62,75.93,34.86,99.48,23.24,23.56,55,35.33,95.3,35.33,54.53,0,101.64-13.02,141.32-39.05ZM235.68,71.59c-10.22,16.12-15.34,37.81-15.34,65.08,0,17.98,3.4,34.4,10.23,49.28,6.81,14.88,18.59,31.93,35.33,51.13,19.21-17.97,34.08-36.4,44.63-55.32,10.53-18.9,15.8-37.03,15.8-54.39,0-24.78-4.34-44.31-13.02-58.57-8.68-14.25-20.45-21.38-35.33-21.38-17.99,0-32.08,8.06-42.31,24.17Z"/>
</svg>