<?xml version="1.0" encoding="UTF-8"?>
<svg id="Layer_1" data-name="Layer 1" xmlns="http://www.w3.org/2000/svg" viewBox="0 0 432.11 673.3">
  <defs>
    <style>
      .cls-1 {
        stroke-width: 0px;
      }
    </style>
  </defs>
  <path class="cls-1" d="m432.06,654.5c-1.87-11.9-7.45-24.99-15.62-33.79-18.42-19.85-27.64-42.03-28.69-68.84-.45-11.61-4.37-23.11-7.06-34.59-19.23-82.11-38.97-164.11-57.68-246.34-12.2-53.6-23.43-107.44-34.06-161.38-3.3-16.75-8.62-34.28,9.82-48.72,5.17-4.05,6.45-23.91,2.29-27.1-16.43-12.58-34.68-25.77-54.24-30.47-21.44-5.15-45.07-1.17-67.75-1.17-.02.24-.04.48-.06.72C157.36,1.74,135.71-.32,114.1.04c-8.75.15-22.54,3.49-24.86,9.14-3.17,7.73,1.76,19.22,4.42,28.76,3.6,12.93,12.67,25.85,11.78,38.22-2.75,38.21-8.92,76.2-14.13,114.22-17.2,125.62-34.91,251.18-51.4,376.9-2.03,15.47-3.8,25.73-22.04,28.4-19.09,2.79-22.58,19.05-11.98,30.64,18.24,19.93,37.7,39.72,69.62,38.82,39.33-1.11,78.75,1.59,118.12,1.39,11.56-.06,23.11-4.38,34.66-6.75-3.42-11.64-4.25-25.07-10.8-34.56-14.16-20.53-28.61-44.58-12.5-64.42,10.74-13.23,37.22-16.64,57.16-18.24,9.82-.79,25.44,10.23,30.09,19.91,6.45,13.44,13.72,31.5-7.95,43.66-5.51,3.09-10.09,20.13-6.85,24.22,10.31,13,23.05,29.44,37.52,32.7,33.17,7.47,67.89,8.8,102.08,10.27,5.07.22,15.88-13.14,14.99-18.8Zm-178.96-212.79c-10.42.12-24.9-2.12-30.52-9.16-11.58-14.51,1.24-70,20.87-90.97,8.26,29.94,16.37,55.71,21.81,82.03,1.1,5.33-7.78,18.05-12.17,18.1Z"/>
</svg>