<?xml version="1.0" encoding="UTF-8"?>
<svg id="Layer_1" data-name="Layer 1" xmlns="http://www.w3.org/2000/svg" viewBox="0 0 356.92 665.15">
  <defs>
    <style>
      .cls-1 {
        stroke-width: 0px;
      }
    </style>
  </defs>
  <path class="cls-1" d="m341.9,29.62c1.34-10.55,18.23-24.88,14.47-27.74s-137.89.43-150.74,0c-12.86-.43-142.11-5.48-176.42,2.97-9.59,8.38-10.77,2.44-11.46,30.24s6.51,49.85,12.37,51.32c5.86,1.47,30.78-20.21,72.67-24.39,18.44-.47,40.63,3.77,40.63,3.77,0,0-59.46,25.92-113.52,173.61C-7.82,342.53.33,418.44,1.62,436.98c2.13,30.71,11.96,116.04,22.31,176.51,4.29,25.05,13.81,51.66,13.81,51.66h88.11s-37.06-81.65-41.84-107.61c-4.78-25.96-11.67-72.24-11.67-72.24,0,0-1.71-12.06-1.71-20.12s-3.03-17.06,11.91-16.48c5.13.4,7.18,9.57,7.18,9.57h187.53l-1.66,206.88h72.36s-19.35-603.46-6.03-635.53Zm-64.26,378.56s-24.72-3.66-65.24-1.52c-30.14,1.59-92.68,5.82-115.04,7.59-7.98.63-21.9,3.16-22.01-7.02,0,0,.25-124.6,28.67-180.42,70.63-138.73,101.61-161.01,101.61-161.01h0s74.77,0,74.77,0l-2.76,342.38Z"/>
</svg>