<?xml version="1.0" encoding="UTF-8"?>
<svg id="Layer_2" data-name="Layer 2" xmlns="http://www.w3.org/2000/svg" viewBox="0 0 203.82 283.97">
  <defs>
    <style>
      .cls-1 {
        fill: #fff;
        stroke-width: 0px;
      }
    </style>
  </defs>
  <g id="artboard_18" data-name="artboard 18">
    <path class="cls-1" d="m178.87,4.89c0,6.86,0,12.55,0,18.23,0,75.84.01,151.69.03,227.53,0,3.02-.02,6.05.18,9.06.94,14.02,4.68,17.27,18.6,16.51,1.88-.1,3.8.35,6.13,2.32-1.89.92-3.72,2.43-5.69,2.65-10.47,1.17-20.97,2.81-31.46,2.78-13.54-.04-18.84-6.34-18.83-19.83.03-31.69,0-63.38,0-96.88-3.55,2.18-5.94,3.65-8.33,5.13-36.29,22.41-82.34,19.87-112.25-6.98C1.85,142.59-3.27,112.83,1.71,80.83,10.46,24.71,64.53-10.63,119.94,2.88c4.99,1.22,9.98,2.39,14.97,3.58,14.45,3.45,28.91,6.51,43.96-1.57Zm-30.7,95.29c-.14,0-.28,0-.42,0,0-16,.71-32.05-.19-48-.97-17.2-7.31-31.91-25.09-38.42-26.41-9.68-58.79.19-73.64,23.99-20.28,32.49-21.18,67.48-4.96,101.25,18.48,38.49,68.26,47.15,98.93,18.9,2.88-2.65,4.99-7.56,5.14-11.52.59-15.38.24-30.8.24-46.2Z"/>
  </g>
</svg>