<?xml version="1.0" encoding="UTF-8"?>
<svg id="Layer_2" data-name="Layer 2" xmlns="http://www.w3.org/2000/svg" viewBox="0 0 111.57 76.45">
  <defs>
    <style>
      .cls-1 {
        fill: #fff;
        stroke-width: 0px;
      }
    </style>
  </defs>
  <g id="artboard_18" data-name="artboard 18">
    <path class="cls-1" d="m103.38,52.65c3.1-2.48,8.18-11.73,8.19-19.15.01-7.03-.97-11.12-6.25-17.72-5.57-6.96-19.2-12.09-27.74-14.43C69.04-.99,41.74.18,35.96,1.35c-5.78,1.17-15.24,6.86-17.48,8.71s-11.27,7.03-11.27,21.65c0,12.82,10.88,21.51,13.56,23.46l-20.77-.4v18.82l109.38,2.85v-19.58l-12.38-.24c1.26-.5,3.4-1.59,6.38-3.98Zm-25.45,3.62l-36.53-.7c-3.53-1.38-13.5-6.24-13.5-17.16,1.02-12.22,5.42-13.6,10.71-15.35,5.3-1.76,31.42-1.1,36.97,0,5.55,1.1,15.06,2.83,15.06,16.47,0,10.34-8.56,15.06-12.7,16.73Z"/>
  </g>
</svg>