<?xml version="1.0" encoding="UTF-8"?>
<svg id="Layer_2" data-name="Layer 2" xmlns="http://www.w3.org/2000/svg" viewBox="0 0 63 107.05">
  <defs>
    <style>
      .cls-1 {
        fill: #fff;
        stroke-width: 0px;
      }
    </style>
  </defs>
  <g id="artboard_18" data-name="artboard 18">
    <path class="cls-1" d="m62.97,73.23c-.46-9.26-3.1-13.17-5.65-17.45-3.51-5.88-8.67-9.25-12.17-11.35-5.35-3.21-10.03-5.67-17.39-5.19-5.48.36-13.66,5.48-13.66,5.48V0H0v106.87h12.92s11.25.41,15.38,0c4.13-.41,10.54-.95,13.55-2.08,6.21-2.27,9.41-3.82,12.7-7.77,3.43-4.11,8.87-14.53,8.41-23.79Zm-23.32,22.96c-4.1,3.21-9.22,5.46-14.85,4.54-5.64,0-10.69-5.31-10.69-5.31v-33.7l.65-8.21s1.59-8.49,12.95-10.67c2.6-.5,5.31-.22,7.66.98,5.12,2.61,7.39,8.3,7.6,10.4.26,2.71,1,15,1,20.47s-.21,18.27-4.31,21.48Z"/>
  </g>
</svg>